<?xml version="1.0" encoding="UTF-8"?>
<!--

    CodeScan for IntelliJ IDEA
    Copyright (C) 2015-2023 SonarSource SA
    sonarlint@sonarsource.com

    This program is free software; you can redistribute it and/or
    modify it under the terms of the GNU Lesser General Public
    License as published by the Free Software Foundation; either
    version 3 of the License, or (at your option) any later version.

    This program is distributed in the hope that it will be useful,
    but WITHOUT ANY WARRANTY; without even the implied warranty of
    MERCHANTABILITY or FITNESS FOR A PARTICULAR PURPOSE.  See the GNU
    Lesser General Public License for more details.

    You should have received a copy of the GNU Lesser General Public
    License along with this program; if not, write to the Free Software
    Foundation, Inc., 51 Franklin Street, Fifth Floor, Boston, MA  02

-->
<!DOCTYPE svg PUBLIC "-//W3C//DTD SVG 1.1//EN" "http://www.w3.org/Graphics/SVG/1.1/DTD/svg11.dtd">
<svg xmlns="http://www.w3.org/2000/svg" version="1.1" width="256px" height="69px" style="shape-rendering:geometricPrecision; text-rendering:geometricPrecision; image-rendering:optimizeQuality; fill-rule:evenodd; clip-rule:evenodd" xmlns:xlink="http://www.w3.org/1999/xlink">
<g><path style="opacity:0.81" fill="#3868f5" d="M 11.5,13.5 C 12.8333,13.5 14.1667,13.5 15.5,13.5C 15.3944,16.1085 14.2277,18.1085 12,19.5C 11.6667,23.8333 11.3333,28.1667 11,32.5C 9.24427,34.2742 9.24427,35.9409 11,37.5C 11.3333,41.8333 11.6667,46.1667 12,50.5C 13.6945,52.2396 14.8611,54.2396 15.5,56.5C 12.9556,56.8957 10.7889,56.229 9,54.5C 8.66667,49.8333 8.33333,45.1667 8,40.5C 7.18395,38.3746 6.01728,36.5413 4.5,35C 6.45932,33.7005 7.62598,31.8671 8,29.5C 8.33333,24.8333 8.66667,20.1667 9,15.5C 9.9947,14.9341 10.828,14.2674 11.5,13.5 Z"/></g>
<g><path style="opacity:0.673" fill="#3868f5" d="M 29.5,13.5 C 30.5,13.5 31.5,13.5 32.5,13.5C 28.9641,23.5789 25.1308,33.5789 21,43.5C 20.3591,45.8132 19.0257,47.4798 17,48.5C 16.5,48.1667 16,47.8333 15.5,47.5C 20.3682,36.2234 25.0349,24.89 29.5,13.5 Z"/></g>
<g><path style="opacity:0.739" fill="#3868f5" d="M 238.5,13.5 C 241.044,13.1043 243.211,13.771 245,15.5C 246.124,21.1027 246.79,26.7694 247,32.5C 250.169,34.3806 250.169,36.3806 247,38.5C 246.841,43.9162 246.174,49.2496 245,54.5C 243.211,56.229 241.044,56.8957 238.5,56.5C 238.5,55.5 238.5,54.5 238.5,53.5C 240.124,53.6399 241.29,52.9733 242,51.5C 242.022,45.8359 242.856,40.3359 244.5,35C 242.856,29.6641 242.022,24.1641 242,18.5C 239.828,17.4911 238.662,15.8244 238.5,13.5 Z"/></g>
<g><path style="opacity:0.736" fill="#000000" d="M 101.5,14.5 C 102.833,14.5 104.167,14.5 105.5,14.5C 105.5,25.5 105.5,36.5 105.5,47.5C 103.549,47.7733 102.049,47.1066 101,45.5C 90.4149,51.2902 84.2482,48.1235 82.5,36C 83.9708,23.8239 90.1375,20.3239 101,25.5C 101.499,21.8484 101.665,18.1817 101.5,14.5 Z M 90.5,26.5 C 99.5934,26.1059 103.093,30.4392 101,39.5C 96.3867,47.485 91.72,47.485 87,39.5C 85.8452,34.4745 87.0119,30.1412 90.5,26.5 Z"/></g>
<g><path style="opacity:0.714" fill="#000000" d="M 41.5,22.5 C 48.2531,21.8639 52.5864,24.6972 54.5,31C 53.1667,31.6667 51.8333,31.6667 50.5,31C 48.4369,26.7816 45.1036,25.4482 40.5,27C 36.2856,31.2002 35.4522,36.0336 38,41.5C 43.7788,47.1845 47.9454,46.1845 50.5,38.5C 51.9778,38.238 53.3112,38.5713 54.5,39.5C 52.779,47.0306 48.1124,49.8639 40.5,48C 34.0041,44.8771 31.5041,39.7105 33,32.5C 34.2892,27.7209 37.1225,24.3875 41.5,22.5 Z"/></g>
<g><path style="opacity:0.734" fill="#000000" d="M 65.5,22.5 C 71.9797,21.9846 76.4797,24.6512 79,30.5C 81.6298,42.853 76.7965,48.6863 64.5,48C 57.004,43.8516 54.8374,37.6849 58,29.5C 59.7668,26.228 62.2668,23.8947 65.5,22.5 Z M 64.5,26.5 C 74.2898,26.4559 77.7898,31.1226 75,40.5C 70.0034,47.266 65.3368,46.9327 61,39.5C 59.6681,34.4145 60.8347,30.0812 64.5,26.5 Z"/></g>
<g><path style="opacity:0.752" fill="#000000" d="M 117.5,22.5 C 126.648,22.6489 130.981,27.3156 130.5,36.5C 124.5,36.5 118.5,36.5 112.5,36.5C 112.64,43.1424 115.973,45.9758 122.5,45C 124.019,43.6487 125.352,42.1487 126.5,40.5C 127.833,39.1667 129.167,39.1667 130.5,40.5C 127.865,47.4477 122.865,49.9477 115.5,48C 108.637,43.0543 106.804,36.5543 110,28.5C 111.707,25.4096 114.207,23.4096 117.5,22.5 Z M 116.5,26.5 C 122.406,25.4354 125.739,27.7688 126.5,33.5C 121.786,33.8266 117.12,33.4933 112.5,32.5C 113.467,30.2099 114.8,28.2099 116.5,26.5 Z"/></g>
<g><path style="opacity:0.72" fill="#000000" d="M 152.5,22.5 C 159.268,22.0174 162.935,25.0174 163.5,31.5C 162.167,31.5 160.833,31.5 159.5,31.5C 159.703,29.6096 159.037,28.1096 157.5,27C 155.167,26.3333 152.833,26.3333 150.5,27C 149.167,28.6667 149.167,30.3333 150.5,32C 154.771,33.2738 158.937,34.7738 163,36.5C 165.223,40.3877 164.723,43.8877 161.5,47C 156.154,49.3723 151.154,48.8723 146.5,45.5C 145.253,43.677 144.586,41.677 144.5,39.5C 145.833,39.5 147.167,39.5 148.5,39.5C 150.2,45.342 153.866,46.842 159.5,44C 160.833,42.3333 160.833,40.6667 159.5,39C 155.608,37.3599 151.608,36.0265 147.5,35C 143.707,28.4809 145.374,24.3142 152.5,22.5 Z"/></g>
<g><path style="opacity:0.714" fill="#000000" d="M 175.5,22.5 C 182.253,21.8639 186.586,24.6972 188.5,31C 187.167,31.6667 185.833,31.6667 184.5,31C 182.437,26.7816 179.104,25.4482 174.5,27C 170.286,31.2002 169.452,36.0336 172,41.5C 177.779,47.1845 181.945,46.1845 184.5,38.5C 185.978,38.238 187.311,38.5713 188.5,39.5C 186.779,47.0306 182.112,49.8639 174.5,48C 168.004,44.8771 165.504,39.7105 167,32.5C 168.289,27.7209 171.123,24.3875 175.5,22.5 Z"/></g>
<g><path style="opacity:0.741" fill="#000000" d="M 199.5,22.5 C 203.033,22.5053 206.2,23.5053 209,25.5C 210.416,31.7145 210.916,38.0478 210.5,44.5C 211.5,44.5 212.5,44.5 213.5,44.5C 213.5,45.5 213.5,46.5 213.5,47.5C 210.453,48.1446 208.287,47.1446 207,44.5C 202.773,48.937 197.94,49.6037 192.5,46.5C 190.031,43.3259 189.864,39.9926 192,36.5C 196.464,34.4346 201.131,33.1012 206,32.5C 207.569,28.098 206.069,26.098 201.5,26.5C 197.643,26.0286 195.643,27.6953 195.5,31.5C 194.167,31.5 192.833,31.5 191.5,31.5C 192.121,26.5518 194.788,23.5518 199.5,22.5 Z M 205.5,35.5 C 207.492,40.9015 205.492,44.2348 199.5,45.5C 194.314,44.5696 193.314,42.0696 196.5,38C 199.628,37.1588 202.628,36.3254 205.5,35.5 Z"/></g>
<g><path style="opacity:0.742" fill="#000000" d="M 224.5,22.5 C 229.152,21.984 232.652,23.6507 235,27.5C 235.5,34.1583 235.666,40.825 235.5,47.5C 234.5,47.5 233.5,47.5 232.5,47.5C 232.666,42.1563 232.499,36.8229 232,31.5C 230.494,26.5894 227.327,25.256 222.5,27.5C 221.667,28.5 220.833,29.5 220,30.5C 219.501,36.1569 219.334,41.8236 219.5,47.5C 218.167,47.5 216.833,47.5 215.5,47.5C 215.5,39.5 215.5,31.5 215.5,23.5C 217.451,23.2267 218.951,23.8934 220,25.5C 221.652,24.6006 223.152,23.6006 224.5,22.5 Z"/></g>
<g><path style="opacity:0.709" fill="#000000" d="M 135.5,42.5 C 137.167,42.5 138.833,42.5 140.5,42.5C 140.5,44.1667 140.5,45.8333 140.5,47.5C 138.833,47.5 137.167,47.5 135.5,47.5C 135.5,45.8333 135.5,44.1667 135.5,42.5 Z"/></g>
</svg>
